<svg id="Layer_1" data-name="Layer 1" xmlns="http://www.w3.org/2000/svg" viewBox="0 0 500 500"><defs><style>.cls-1{fill:#ee3138;}.cls-2{fill:#fff;}</style></defs><title>rildil_bbq</title><path class="cls-1" d="M184,327.46H134.06V269.94H184l17.8,9v16.19l-7,3.56,7,3.63v16.12ZM180.4,284l-6.31-3.12H155.58v12.41h18.65l6.17-3.12Zm0,29.48v-6.1l-6.17-3.19H155.58v12.41h18.51Z"/><path class="cls-1" d="M266.07,327.46H216.13V269.94h49.94l17.8,9v16.19l-7,3.56,7,3.63v16.12ZM262.48,284l-6.31-3.12H237.66v12.41h18.65l6.17-3.12Zm0,29.48v-6.1l-6.17-3.19H237.66v12.41h18.51Z"/><path class="cls-1" d="M348.29,327.46l9.33,4.64H342.41l-9.33-4.57H316l-17.8-9V279l17.8-9.08h32L365.94,279v39.5Zm-3.87-14V284l-6.17-3.12h-12.2l-6.31,3v29.55l6.17,3.13h12.34Z"/><path class="cls-2" d="M185.82,334.75H135.88a7.31,7.31,0,0,1-7.3-7.29V269.94a7.31,7.31,0,0,1,7.3-7.29h49.94a7.37,7.37,0,0,1,3.29.78l17.8,9a7.25,7.25,0,0,1,4,6.51v16.19a7.28,7.28,0,0,1-.95,3.6,7.24,7.24,0,0,1,.95,3.59v16.12a7.25,7.25,0,0,1-4,6.51l-17.8,9A7.34,7.34,0,0,1,185.82,334.75Zm-49.94-68.46a3.66,3.66,0,0,0-3.65,3.65v57.52a3.65,3.65,0,0,0,3.65,3.64h49.94a3.57,3.57,0,0,0,1.64-.39l17.8-9a3.65,3.65,0,0,0,2-3.26V302.33a3.67,3.67,0,0,0-.9-2.4l-1-1.2,1-1.19a3.67,3.67,0,0,0,.9-2.4V279a3.64,3.64,0,0,0-2-3.26l-17.8-9a3.58,3.58,0,0,0-1.64-.4Zm39.18,46.62h-14V307.8h14.12l5,2.59Zm.13-23.3H161.05v-5.13h14l5.18,2.57Z"/><path class="cls-1" d="M185.82,327.46H135.88V269.94h49.94l17.79,9v16.19l-7,3.56,7,3.63v16.12ZM182.23,284l-6.31-3.12H157.4v12.41h18.66l6.17-3.12Zm0,29.48v-6.1l-6.17-3.19H157.4v12.41h18.52Z"/><path class="cls-2" d="M267.9,334.75H218a7.31,7.31,0,0,1-7.3-7.29V269.94a7.31,7.31,0,0,1,7.3-7.29H267.9a7.4,7.4,0,0,1,3.29.78l17.79,9a7.26,7.26,0,0,1,4,6.51v16.19a7.22,7.22,0,0,1-.95,3.59,7.31,7.31,0,0,1,.95,3.6v16.12a7.26,7.26,0,0,1-4,6.51l-17.79,9A7.34,7.34,0,0,1,267.9,334.75ZM218,266.29a3.66,3.66,0,0,0-3.65,3.65v57.52A3.65,3.65,0,0,0,218,331.1H267.9a3.57,3.57,0,0,0,1.64-.39l17.8-9a3.65,3.65,0,0,0,2-3.26V302.33a3.67,3.67,0,0,0-.9-2.4l-1-1.2,1-1.19a3.67,3.67,0,0,0,.9-2.4V279a3.64,3.64,0,0,0-2-3.26l-17.8-9a3.64,3.64,0,0,0-1.64-.4Zm39.18,46.62h-14V307.8h14.12l5,2.59Zm.13-23.3H243.13v-5.13h14l5.18,2.57Z"/><path class="cls-1" d="M267.9,327.46H218V269.94H267.9l17.79,9v16.19l-7,3.56,7,3.63v16.12ZM264.31,284,258,280.84H239.48v12.41h18.66l6.17-3.12Zm0,29.48v-6.1l-6.17-3.19H239.48v12.41H258Z"/><path class="cls-2" d="M359.44,339.4H344.23a7.28,7.28,0,0,1-3.21-.75l-7.81-3.82H317.83a7.42,7.42,0,0,1-3.3-.79l-17.79-9a7.27,7.27,0,0,1-4-6.52V279a7.25,7.25,0,0,1,4-6.5l17.79-9.08a7.34,7.34,0,0,1,3.32-.79h32a7.34,7.34,0,0,1,3.29.78l17.94,9.08a7.26,7.26,0,0,1,4,6.51v39.5a7.28,7.28,0,0,1-4,6.52l-5.65,2.86a7.29,7.29,0,0,1-6,11.5Zm-41.61-73.11a3.69,3.69,0,0,0-1.66.4l-17.79,9.08a3.63,3.63,0,0,0-2,3.25v39.5a3.61,3.61,0,0,0,2,3.26l17.79,9a3.65,3.65,0,0,0,1.65.4h16.23l8.57,4.2a3.68,3.68,0,0,0,1.6.37h15.21a3.65,3.65,0,0,0,1.91-6.76l-2.81-1.71,10.88-5.5a3.63,3.63,0,0,0,2-3.26V279a3.63,3.63,0,0,0-2-3.25l-17.94-9.08a3.65,3.65,0,0,0-1.65-.4ZM339.18,313H328.6l-3.39-1.72v-25l3.5-1.69H339.2l3.39,1.72v24.94Zm-9.71-3.65h8.83l.64-.34V288.52l-.61-.31h-8.78l-.69.33V309Z"/><path class="cls-1" d="M350.12,327.46l9.33,4.64H344.23l-9.32-4.57H317.83l-17.79-9V279l17.79-9.08h32L367.77,279v39.5Zm-3.88-14V284l-6.17-3.12H327.88l-6.32,3v29.55l6.17,3.13h12.34Z"/><path class="cls-2" d="M113.73,327.14H34.14a7.3,7.3,0,0,1-7.3-7.3v-4.79a7.3,7.3,0,0,1,7.3-7.3h79.59a7.31,7.31,0,0,1,7.3,7.3v4.79A7.31,7.31,0,0,1,113.73,327.14ZM34.14,311.4a3.64,3.64,0,0,0-3.65,3.65v4.79a3.65,3.65,0,0,0,3.65,3.65h79.59a3.66,3.66,0,0,0,3.65-3.65v-4.79a3.65,3.65,0,0,0-3.65-3.65Z"/><rect class="cls-1" x="34.14" y="315.05" width="79.59" height="4.8"/><path class="cls-2" d="M113.73,308.89H34.14a7.3,7.3,0,0,1-7.3-7.29v-4.8a7.3,7.3,0,0,1,7.3-7.3h79.59a7.31,7.31,0,0,1,7.3,7.3v4.8A7.31,7.31,0,0,1,113.73,308.89ZM34.14,293.15a3.65,3.65,0,0,0-3.65,3.65v4.8a3.65,3.65,0,0,0,3.65,3.65h79.59a3.66,3.66,0,0,0,3.65-3.65v-4.8a3.66,3.66,0,0,0-3.65-3.65Z"/><rect class="cls-1" x="34.14" y="296.8" width="79.59" height="4.8"/><path class="cls-2" d="M113.73,290.65H34.14a7.3,7.3,0,0,1-7.3-7.3v-4.8a7.3,7.3,0,0,1,7.3-7.29h79.59a7.31,7.31,0,0,1,7.3,7.29v4.8A7.31,7.31,0,0,1,113.73,290.65ZM34.14,274.91a3.64,3.64,0,0,0-3.65,3.64v4.8A3.65,3.65,0,0,0,34.14,287h79.59a3.66,3.66,0,0,0,3.65-3.65v-4.8a3.65,3.65,0,0,0-3.65-3.64Z"/><rect class="cls-1" x="34.14" y="278.55" width="79.59" height="4.8"/><path class="cls-2" d="M469.51,327.14H389.92a7.31,7.31,0,0,1-7.3-7.3v-4.79a7.31,7.31,0,0,1,7.3-7.3h79.59a7.3,7.3,0,0,1,7.3,7.3v4.79A7.3,7.3,0,0,1,469.51,327.14ZM389.92,311.4a3.65,3.65,0,0,0-3.65,3.65v4.79a3.66,3.66,0,0,0,3.65,3.65h79.59a3.66,3.66,0,0,0,3.65-3.65v-4.79a3.65,3.65,0,0,0-3.65-3.65Z"/><rect class="cls-1" x="389.92" y="315.05" width="79.59" height="4.8"/><path class="cls-2" d="M469.51,308.89H389.92a7.31,7.31,0,0,1-7.3-7.29v-4.8a7.31,7.31,0,0,1,7.3-7.3h79.59a7.3,7.3,0,0,1,7.3,7.3v4.8A7.3,7.3,0,0,1,469.51,308.89Zm-79.59-15.74a3.66,3.66,0,0,0-3.65,3.65v4.8a3.66,3.66,0,0,0,3.65,3.65h79.59a3.66,3.66,0,0,0,3.65-3.65v-4.8a3.66,3.66,0,0,0-3.65-3.65Z"/><rect class="cls-1" x="389.92" y="296.8" width="79.59" height="4.8"/><path class="cls-2" d="M469.51,290.65H389.92a7.31,7.31,0,0,1-7.3-7.3v-4.8a7.31,7.31,0,0,1,7.3-7.29h79.59a7.3,7.3,0,0,1,7.3,7.29v4.8A7.3,7.3,0,0,1,469.51,290.65Zm-79.59-15.74a3.65,3.65,0,0,0-3.65,3.64v4.8a3.66,3.66,0,0,0,3.65,3.65h79.59a3.66,3.66,0,0,0,3.65-3.65v-4.8a3.65,3.65,0,0,0-3.65-3.64Z"/><rect class="cls-1" x="389.92" y="278.55" width="79.59" height="4.8"/><path class="cls-1" d="M77.15,198.82C83,214.91,89,231,94.36,247.25H73.68C68.27,231.06,62.6,215,57.08,198.81l-8.24-1.09c0,19.35,0,29.07-.07,49.53H28.88V91.62C44.34,98.84,59.82,106,75.4,113c6.63,12.28,9.93,18.15,16.54,29,0,18.35-.08,26.21-.14,42.62A192.71,192.71,0,0,0,77.15,198.82Zm-1.81-25.09c0-12.46.06-18.65.1-31.82-3.71-5.27-5.56-8-9.28-13.6C59.29,125.42,55.85,124,49,121l-.09,56.55c6.87,1.49,10.3,2.23,17.16,3.69C69.76,178.08,71.62,176.58,75.34,173.73Z"/><path class="cls-1" d="M105.27,125.87c8,3.28,11.93,4.87,19.86,7.89q-.16,56.75-.4,113.49H104.85Q105,186.56,105.27,125.87Z"/><path class="cls-1" d="M188.1,247.25H138q.16-54.31.37-108.62c7.92,2.81,11.89,4.14,19.81,6.59q-.1,42.5-.25,85c12.08.17,18.12.23,30.21.28C188.12,236.32,188.11,239.57,188.1,247.25Z"/><path class="cls-1" d="M358.07,247.25H311.89q.06-47.07.12-94.12c18.52-4.24,27.79-7.09,46.3-13.53a149.41,149.41,0,0,0,16.44,14.51q-.08,36.3-.18,72.61C368,234.43,364.67,238.3,358.07,247.25Zm-3.4-24.53q.06-28.69.14-57.41c-2.28-2.08-3.42-3.14-5.7-5.41-6.87,2.13-10.3,3.14-17.16,5q-.06,32.7-.13,65.38c6.85-.08,10.28-.13,17.12-.25C351.23,227,352.38,225.58,354.67,222.72Z"/><path class="cls-1" d="M388.08,128.38c8-3.21,11.95-4.88,19.9-8.29q-.14,63.58-.29,127.16h-19.9Q387.92,187.81,388.08,128.38Z"/><path class="cls-1" d="M471.12,247.25H421q.14-66.46.27-132.93c7.94-3.51,11.91-5.3,19.84-8.91l-.18,122.09,30.23-1Z"/><path class="cls-2" d="M94.36,254.55H73.68a7.3,7.3,0,0,1-6.92-5c-3.4-10.18-7-20.51-10.43-30.51l-.22-.64,0,28.85a7.31,7.31,0,0,1-7.3,7.29H28.88a7.31,7.31,0,0,1-7.29-7.3V91.62A7.28,7.28,0,0,1,25,85.46,7.37,7.37,0,0,1,32,85c14.83,6.92,30.71,14.29,46.4,21.31a7.32,7.32,0,0,1,3.45,3.19c6.47,12,9.74,17.81,16.35,28.61A7.22,7.22,0,0,1,99.24,142l-.14,42.63A7.3,7.3,0,0,1,96.65,190c-4.83,4.3-7.47,6.81-11.1,10.57l.18.49C91,215.41,96.38,230.2,101.28,245a7.29,7.29,0,0,1-6.92,9.6ZM52.49,196.71l7.29,21.14c3.46,10,7,20.36,10.44,30.56a3.65,3.65,0,0,0,3.46,2.49H94.36a3.65,3.65,0,0,0,3.46-4.8c-4.88-14.7-10.28-29.47-15.5-43.75l-1-2.67.78-.82c4.08-4.25,6.9-7,12.09-11.58a3.67,3.67,0,0,0,1.23-2.72l.14-42.62a3.61,3.61,0,0,0-.53-1.92c-6.65-10.87-9.94-16.72-16.45-28.77a3.65,3.65,0,0,0-1.72-1.6c-15.72-7-31.62-14.41-46.46-21.34a3.71,3.71,0,0,0-3.51.23,3.63,3.63,0,0,0-1.68,3.08V247.25a3.65,3.65,0,0,0,3.64,3.65H48.77a3.66,3.66,0,0,0,3.65-3.65ZM65,177.31l-.87-.19L54,174.93l-1.44-.31.08-48.08,2.53,1.07L63.22,131l.51.21.31.46c2.9,4.38,4.63,6.92,7.41,10.88l.33.48-.08,28.87-.7.54c-1.94,1.51-3.42,2.71-5.28,4.27Zm-8.86-5.64,7.88,1.7c1.36-1.13,2.59-2.13,4-3.23l.07-25.94c-2.51-3.59-4.2-6.06-6.83-10-1.87-.79-3.5-1.47-5.06-2.14Z"/><path class="cls-1" d="M77.15,198.82C83,214.91,89,231,94.36,247.25H73.68C68.27,231.06,62.6,215,57.08,198.81l-8.24-1.09c0,19.35,0,29.07-.07,49.53H28.88V91.62C44.34,98.84,59.82,106,75.4,113c6.63,12.28,9.93,18.15,16.54,29,0,18.35-.08,26.21-.14,42.62A192.71,192.71,0,0,0,77.15,198.82Zm-1.81-25.09c0-12.46.06-18.65.1-31.82-3.71-5.27-5.56-8-9.28-13.6C59.29,125.42,55.85,124,49,121l-.09,56.55c6.87,1.49,10.3,2.23,17.16,3.69C69.76,178.08,71.62,176.58,75.34,173.73Z"/><path class="cls-2" d="M124.73,254.55H104.85a7.36,7.36,0,0,1-5.17-2.15,7.22,7.22,0,0,1-2.13-5.18q.09-30,.21-60,.12-30.69.22-61.38a7.26,7.26,0,0,1,3.25-6,7.4,7.4,0,0,1,6.83-.68c7.68,3.18,11.6,4.75,19.67,7.82a7.35,7.35,0,0,1,4.7,6.85q-.09,28.38-.2,56.75t-.2,56.73A7.32,7.32,0,0,1,124.73,254.55ZM105.27,122.22a3.63,3.63,0,0,0-2,.61,3.69,3.69,0,0,0-1.63,3q-.09,30.69-.21,61.39-.1,30-.21,60a3.62,3.62,0,0,0,1.06,2.58,3.66,3.66,0,0,0,2.59,1.08h19.88a3.66,3.66,0,0,0,3.65-3.64q.09-28.37.2-56.73t.2-56.75a3.67,3.67,0,0,0-2.35-3.43c-8.11-3.08-12.05-4.67-19.76-7.85A3.57,3.57,0,0,0,105.27,122.22Z"/><path class="cls-1" d="M105.27,125.87c8,3.28,11.93,4.87,19.86,7.89q-.16,56.75-.4,113.49H104.85Q105,186.56,105.27,125.87Z"/><path class="cls-2" d="M188.1,254.55H138a7.31,7.31,0,0,1-7.3-7.32q.09-27.16.19-54.32t.18-54.3a7.29,7.29,0,0,1,9.73-6.86c8.1,2.87,11.93,4.15,19.53,6.5a7.26,7.26,0,0,1,5.15,7q-.08,28-.17,56.09L165.24,223c7.74.1,13.59.15,22.91.18a7.3,7.3,0,0,1,7.27,7.31l0,16.76A7.31,7.31,0,0,1,188.1,254.55ZM138.36,135a3.65,3.65,0,0,0-3.65,3.64q-.09,27.15-.19,54.31l-.18,54.31a3.67,3.67,0,0,0,1.07,2.58A3.6,3.6,0,0,0,138,250.9H188.1a3.66,3.66,0,0,0,3.65-3.65l0-16.76a3.65,3.65,0,0,0-3.64-3.65c-10,0-16.07-.09-24.76-.21l-1.8,0,.07-25.29q.09-28,.17-56.09a3.65,3.65,0,0,0-2.57-3.5c-7.66-2.36-11.52-3.65-19.67-6.54A3.68,3.68,0,0,0,138.36,135Z"/><path class="cls-1" d="M188.1,247.25H138q.16-54.31.37-108.62c7.92,2.81,11.89,4.14,19.81,6.59q-.1,42.5-.25,85c12.08.17,18.12.23,30.21.28C188.12,236.32,188.11,239.57,188.1,247.25Z"/><path class="cls-2" d="M358.07,254.55H311.89a7.35,7.35,0,0,1-5.16-2.14,7.22,7.22,0,0,1-2.13-5.17l.11-94.12a7.27,7.27,0,0,1,5.67-7.11c18.28-4.18,27.4-7,45.53-13.31a7.44,7.44,0,0,1,7.59,1.76,141.74,141.74,0,0,0,15.79,13.93,7.25,7.25,0,0,1,2.76,5.74l-.19,72.6a7.26,7.26,0,0,1-1.75,4.73c-6.47,7.57-9.71,11.36-16.17,20.12A7.31,7.31,0,0,1,358.07,254.55Zm.24-118.6a3.78,3.78,0,0,0-1.2.2c-18.27,6.36-27.47,9.2-45.92,13.42a3.63,3.63,0,0,0-2.83,3.55l-.11,94.12a3.64,3.64,0,0,0,3.64,3.66h46.18a3.68,3.68,0,0,0,2.94-1.49c6.53-8.86,9.8-12.68,16.31-20.3a3.67,3.67,0,0,0,.89-2.39l.19-72.6a3.62,3.62,0,0,0-1.38-2.87A145.17,145.17,0,0,1,360.91,137,3.65,3.65,0,0,0,358.31,136Zm-22.83,90.66.11-58.9,1.33-.38c3.5-1,6.35-1.82,10.15-3l1-.32.77.74c.56.54,1.1,1,1.7,1.6l.59.55L351,221.44l-.39.5c-1.05,1.31-1.92,2.42-3,3.8l-.54.69-.88,0c-3.34.06-5.92.09-8.9.13Zm3.76-56.14-.11,52.44,6.16-.1c.72-.92,1.37-1.75,2.09-2.65l.12-51.65-.38-.36C344.26,169,341.88,169.72,339.24,170.47Z"/><path class="cls-1" d="M358.07,247.25H311.89q.06-47.07.12-94.12c18.52-4.24,27.79-7.09,46.3-13.53a149.41,149.41,0,0,0,16.44,14.51q-.08,36.3-.18,72.61C368,234.43,364.67,238.3,358.07,247.25Zm-3.4-24.53q.06-28.69.14-57.41c-2.28-2.08-3.42-3.14-5.7-5.41-6.87,2.13-10.3,3.14-17.16,5q-.06,32.7-.13,65.38c6.85-.08,10.28-.13,17.12-.25C351.23,227,352.38,225.58,354.67,222.72Z"/><path class="cls-2" d="M407.69,254.55h-19.9a7.24,7.24,0,0,1-5.17-2.15,7.34,7.34,0,0,1-2.13-5.17l.15-59.44q.08-29.72.14-59.43a7.25,7.25,0,0,1,4.58-6.75c8-3.24,12-4.89,19.75-8.23a7.39,7.39,0,0,1,6.9.62,7.28,7.28,0,0,1,3.27,6.11L415,247.26A7.31,7.31,0,0,1,407.69,254.55ZM408,116.44a3.53,3.53,0,0,0-1.43.3c-7.8,3.34-11.76,5-19.83,8.25a3.65,3.65,0,0,0-2.29,3.38q-.06,29.72-.14,59.43t-.15,59.44a3.72,3.72,0,0,0,1.07,2.59,3.61,3.61,0,0,0,2.58,1.07h19.9a3.66,3.66,0,0,0,3.65-3.64l.29-127.16a3.65,3.65,0,0,0-3.65-3.66Z"/><path class="cls-1" d="M388.08,128.38c8-3.21,11.95-4.88,19.9-8.29q-.14,63.58-.29,127.16h-19.9Q387.92,187.81,388.08,128.38Z"/><path class="cls-2" d="M471.12,254.55H421a7.32,7.32,0,0,1-7.3-7.32l.27-132.92a7.33,7.33,0,0,1,4.35-6.67c7.92-3.49,11.87-5.28,19.76-8.87a7.37,7.37,0,0,1,7,.51,7.26,7.26,0,0,1,3.35,6.14L448.2,220l22.92-.79a7.28,7.28,0,0,1,5.07,2.05,7.36,7.36,0,0,1,2.22,5.25v20.79A7.31,7.31,0,0,1,471.12,254.55ZM441.07,101.76a3.54,3.54,0,0,0-1.51.33c-7.91,3.6-11.87,5.39-19.8,8.89a3.66,3.66,0,0,0-2.18,3.33l-.27,132.93A3.67,3.67,0,0,0,421,250.9h50.16a3.65,3.65,0,0,0,3.64-3.65V226.46a3.65,3.65,0,0,0-3.64-3.65l-24.68.85-1.89.07.17-118.32a3.66,3.66,0,0,0-3.65-3.65Z"/><path class="cls-1" d="M471.12,247.25H421q.14-66.46.27-132.93c7.94-3.51,11.91-5.3,19.84-8.91l-.18,122.09,30.23-1Z"/><polygon class="cls-2" points="245.38 162.39 255.03 188.13 282.49 189.35 260.99 206.49 268.31 232.98 245.38 217.83 222.44 232.98 229.76 206.49 208.26 189.35 235.72 188.13 245.38 162.39"/><path class="cls-1" d="M268.31,240.28a7.29,7.29,0,0,1-4-1.21l-18.91-12.49-18.92,12.49a7.3,7.3,0,0,1-11.06-8l6-21.85-17.73-14.13a7.3,7.3,0,0,1,4.23-13l22.64-1,8-21.23a7.3,7.3,0,0,1,13.67,0l8,21.23,22.65,1a7.3,7.3,0,0,1,4.22,13l-17.73,14.13,6,21.85a7.34,7.34,0,0,1-2.75,7.85A7.25,7.25,0,0,1,268.31,240.28Zm-22.93-18.07L266.3,236a3.73,3.73,0,0,0,4.16-.09,3.68,3.68,0,0,0,1.37-3.93l-6.68-24.17,19.62-15.63a3.65,3.65,0,0,0-2.12-6.5l-25-1.12-8.81-23.48a3.65,3.65,0,0,0-6.83,0l-8.81,23.48-25.05,1.12a3.65,3.65,0,0,0-2.11,6.5l19.61,15.63L218.92,232a3.68,3.68,0,0,0,1.37,3.93,3.73,3.73,0,0,0,4.16.09Z"/><polygon class="cls-2" points="245.38 162.39 255.03 188.13 282.49 189.35 260.99 206.49 268.31 232.98 245.38 217.83 222.44 232.98 229.76 206.49 208.26 189.35 235.72 188.13 245.38 162.39"/></svg>